# xmcd
#
# Track frame offsets: 
#        150
#        17242
#        36643
#        57417
#        74520
#        89743
#        103157
#        118583
#        138685
#        156746
#
# Disc length: 2334 seconds
#
# Revision: 0
# Processed by: cddbd v1.5.2PL0 Copyright (c) Steve Scherf et al.
# Submitted via: ExactAudioCopy v0.99pb4
#
DISCID=a3091c0a
DTITLE=รุ่ง  สุริยา - พระจันทร์ร้องไห้
DYEAR=2008
DGENRE=Country
TTITLE0=พระจันทร์ร้องไห้
TTITLE1=รักรอนที่ดอนเจดีย์
TTITLE2=น้ำตาหล่นบนมือถือ
TTITLE3=หมอนแทนกา'อกไม้แทนแก้ม
TTITLE4=แต่งงานกันไหม
TTITLE5=เพลงรักมือถือ
TTITLE6=สัญญากับใจ
TTITLE7=พระเจ้ากรุงธน
TTITLE8=ฟ้าสั่งมา
TTITLE9=โปงลางนางลืม
EXTD=
EXTT0=
EXTT1=
EXTT2=
EXTT3=
EXTT4=
EXTT5=
EXTT6=
EXTT7=
EXTT8=
EXTT9=
PLAYORDER=
